<svg width="1305" height="239" viewBox="0 0 1305 239" fill="none" xmlns="http://www.w3.org/2000/svg">
<path d="M71 59.5104H122.881C157.58 59.5104 174.929 73.6242 174.929 101.852C174.929 115.017 170.801 125.003 162.545 131.809C154.4 138.503 143.578 141.851 130.077 141.851H107.317V178.669H71V59.5104ZM107.317 88.798V114.069H124.889C134.931 114.069 139.952 109.885 139.952 101.517C139.952 93.0378 134.708 88.798 124.22 88.798H107.317Z" fill="#333333"/>
<path d="M245.2 59.5104L289.048 178.669H252.062L246.204 161.766H207.879L202.022 178.669H165.036L209.051 59.5104H245.2ZM238.171 136.16L231.812 115.743C230.361 110.945 228.855 104.92 227.293 97.668C225.508 104.809 223.834 110.889 222.272 115.91C220.599 121.377 218.423 128.127 215.745 136.16H238.171Z" fill="#333333"/>
<path d="M297.028 59.5104H361.126C366.147 59.5104 371 60.0682 375.686 61.184C380.372 62.2997 384.891 64.1406 389.242 66.7068C393.593 69.1614 397.052 72.7875 399.618 77.5851C402.296 82.3827 403.635 88.0728 403.635 94.6556C403.635 101.127 402.017 106.984 398.781 112.228C395.657 117.472 391.418 121.321 386.062 123.776C391.418 125.115 395.49 128.685 398.279 134.487C401.069 140.289 402.798 146.537 403.467 153.231L404.639 165.783C405.197 172.142 406.201 176.438 407.651 178.669H371.502C370.498 176.549 369.773 172.812 369.326 167.456L368.824 160.762C368.49 156.745 368.043 153.51 367.485 151.055C367.039 148.601 366.146 146.146 364.808 143.692C363.469 141.237 361.46 139.452 358.783 138.336C356.105 137.22 352.702 136.662 348.574 136.662H333.177V178.669H297.028V59.5104ZM333.177 87.1245V111.559H353.26C363.19 111.559 368.155 107.431 368.155 99.1742C368.155 91.1411 362.52 87.1245 351.252 87.1245H333.177Z" fill="#333333"/>
<path d="M516.038 59.5104V90.1369H482.566V178.669H446.082V90.1369H412.778V59.5104H516.038Z" fill="#333333"/>
<path d="M623.644 95.6597H589.336C589.224 92.0894 587.829 89.3001 585.152 87.2918C582.474 85.2835 578.792 84.2794 574.106 84.2794C566.073 84.2794 562.056 86.734 562.056 91.6431C562.056 92.982 562.726 94.2651 564.064 95.4924C565.403 96.7197 567.244 97.7796 569.587 98.6722C572.042 99.4532 574.273 100.123 576.282 100.68C578.29 101.238 580.521 101.796 582.976 102.354C585.542 102.8 587.048 103.079 587.495 103.191C592.181 104.418 596.197 105.59 599.544 106.705C602.892 107.821 606.518 109.439 610.423 111.559C614.328 113.567 617.452 115.854 619.795 118.42C622.249 120.875 624.313 124.055 625.987 127.96C627.661 131.753 628.497 136.049 628.497 140.846C628.497 153.231 623.811 163.105 614.439 170.469C605.067 177.721 592.404 181.347 576.449 181.347C559.825 181.347 546.715 177.554 537.12 169.967C527.525 162.268 522.615 151.78 522.392 138.503H559.044C559.602 148.768 565.794 153.9 577.62 153.9C582.195 153.9 585.821 153.008 588.499 151.223C591.176 149.437 592.515 147.039 592.515 144.026C592.515 142.13 591.734 140.512 590.172 139.173C588.722 137.946 585.933 136.607 581.804 135.156C577.676 133.706 572.767 132.2 567.077 130.638C561.498 128.964 557.984 127.848 556.533 127.29C551.736 125.617 547.775 123.999 544.651 122.437C541.527 120.875 538.514 118.867 535.614 116.412C532.713 113.846 530.537 110.778 529.087 107.207C527.748 103.526 527.078 99.23 527.078 94.3209C527.078 83.1637 531.485 74.1821 540.3 67.3762C549.225 60.4587 560.885 57 575.277 57C590.451 57 602.222 60.403 610.59 67.2089C619.07 73.9032 623.421 83.3868 623.644 95.6597Z" fill="#333333"/>
<rect x="9.5" y="9.5" width="680" height="220" stroke="black" stroke-width="19"/>
<rect x="9.5" y="9.5" width="680" height="220" stroke="#333333" stroke-width="19"/>
<path d="M828.325 97.9904H794.017C793.905 94.4201 792.51 91.6308 789.833 89.6225C787.155 87.6142 783.473 86.61 778.787 86.61C770.754 86.61 766.737 89.0646 766.737 93.9738C766.737 95.3126 767.407 96.5957 768.746 97.823C770.084 99.0503 771.925 100.11 774.268 101.003C776.723 101.784 778.954 102.453 780.963 103.011C782.971 103.569 785.203 104.127 787.657 104.685C790.223 105.131 791.729 105.41 792.176 105.521C796.862 106.749 800.878 107.92 804.226 109.036C807.573 110.152 811.199 111.77 815.104 113.889C819.009 115.898 822.133 118.185 824.476 120.751C826.93 123.206 828.995 126.385 830.668 130.29C832.342 134.084 833.178 138.379 833.178 143.177C833.178 155.562 828.492 165.436 819.12 172.799C809.748 180.052 797.085 183.678 781.13 183.678C764.506 183.678 751.396 179.884 741.801 172.297C732.206 164.599 727.297 154.111 727.073 140.834H763.725C764.283 151.099 770.475 156.231 782.302 156.231C786.876 156.231 790.502 155.338 793.18 153.553C795.858 151.768 797.197 149.369 797.197 146.357C797.197 144.46 796.415 142.842 794.853 141.503C793.403 140.276 790.614 138.937 786.486 137.487C782.357 136.036 777.448 134.53 771.758 132.968C766.179 131.295 762.665 130.179 761.215 129.621C756.417 127.947 752.456 126.33 749.332 124.768C746.208 123.206 743.196 121.197 740.295 118.743C737.394 116.177 735.218 113.108 733.768 109.538C732.429 105.856 731.759 101.561 731.759 96.6515C731.759 85.4943 736.167 76.5127 744.981 69.7069C753.907 62.7894 765.566 59.3306 779.959 59.3306C795.132 59.3306 806.903 62.7336 815.271 69.5395C823.751 76.2338 828.102 85.7174 828.325 97.9904ZM945.307 61.841V90.794H882.548V105.689H939.45V133.303H882.548V150.708H946.981V181H846.566V61.841H945.307ZM1065.49 61.841L1028.84 181H987.666L952.018 61.841H989.005L995.029 83.0955C1002.17 108.199 1006.69 128.673 1008.59 144.516C1010.71 129.454 1015.28 109.036 1022.31 83.2629L1028.17 61.841H1065.49ZM1171.67 61.841V90.794H1108.91V105.689H1165.81V133.303H1108.91V150.708H1173.34V181H1072.92V61.841H1171.67ZM1190.43 61.841H1254.52C1259.55 61.841 1264.4 62.3989 1269.08 63.5146C1273.77 64.6303 1278.29 66.4713 1282.64 69.0374C1286.99 71.492 1290.45 75.1181 1293.02 79.9157C1295.69 84.7133 1297.03 90.4035 1297.03 96.9862C1297.03 103.457 1295.42 109.315 1292.18 114.559C1289.06 119.803 1284.82 123.652 1279.46 126.107C1284.82 127.445 1288.89 131.016 1291.68 136.817C1294.47 142.619 1296.2 148.867 1296.87 155.562L1298.04 168.113C1298.6 174.473 1299.6 178.769 1301.05 181H1264.9C1263.9 178.88 1263.17 175.142 1262.73 169.787L1262.22 163.093C1261.89 159.076 1261.44 155.84 1260.88 153.386C1260.44 150.931 1259.55 148.477 1258.21 146.022C1256.87 143.568 1254.86 141.782 1252.18 140.667C1249.5 139.551 1246.1 138.993 1241.97 138.993H1226.58V181H1190.43V61.841ZM1226.58 89.4551V113.889H1246.66C1256.59 113.889 1261.55 109.761 1261.55 101.505C1261.55 93.4717 1255.92 89.4551 1244.65 89.4551H1226.58Z" fill="#333333"/>
</svg>
